# 3ds Max Wavefront OBJ Exporter v0.97b - (c)2007 guruware
# File Created: 05.06.2019 13:06:54

#
# object IxtalGround
#

v  -2.681961 0.000000 2.808168
v  3.819530 0.000000 2.808168
v  -2.681961 0.000000 -2.651832
v  3.819530 0.000000 -2.651832
# 4 vertices

vn 0.000000 1.000000 -0.000000
# 1 vertex normals

vt 0.000000 1.000000 0.500000
vt -0.000000 0.000000 0.500000
vt 1.000000 -0.000000 0.500000
vt 1.000000 1.000000 0.500000
# 4 texture coords

o IxtalGround
g IxtalGround
s 1
f -2/-4/-1 -4/-3/-1 -3/-2/-1 -1/-1/-1 
# 1 polygons

