# 3ds Max Wavefront OBJ Exporter v0.97b - (c)2007 guruware
# File Created: 29.05.2019 14:33:02

#
# object orbs
#

v  1.778305 0.325619 -1.806510
v  1.723051 0.260451 -1.806509
v  -1.806512 0.325619 -1.778304
v  -1.778305 0.260451 1.751259
v  -1.778305 0.453366 1.594755
v  1.861765 0.260451 1.778305
v  1.806511 0.646526 1.833360
v  1.778305 0.260451 -1.861763
v  1.833558 0.260451 -1.806510
v  1.778305 0.260451 -1.751256
v  1.778305 0.453366 -2.018267
v  1.778305 0.646526 -1.861564
v  1.833360 0.646526 -1.806510
v  1.990063 0.453366 -1.806510
v  1.566547 0.453366 -1.806509
v  1.723250 0.646526 -1.806510
v  1.778306 0.453366 -1.594752
v  1.778305 0.646526 -1.751454
v  1.778305 0.581114 -1.806510
v  -1.861765 0.260451 -1.778304
v  -1.806512 0.260451 -1.833558
v  -1.806511 0.260451 -1.723050
v  -1.751258 0.260451 -1.778304
v  -2.018269 0.453366 -1.778304
v  -1.861566 0.646526 -1.778304
v  -1.806512 0.646526 -1.833360
v  -1.806512 0.453366 -1.990062
v  -1.806511 0.453366 -1.566547
v  -1.806512 0.646526 -1.723249
v  -1.594754 0.453366 -1.778305
v  -1.751456 0.646526 -1.778304
v  -1.806512 0.581114 -1.778304
v  -1.778305 0.325619 1.806512
v  -1.778305 0.260451 1.861766
v  -1.833558 0.260451 1.806512
v  -1.723051 0.260451 1.806512
v  -1.778305 0.453366 2.018270
v  -1.778305 0.646526 1.861567
v  -1.833360 0.646526 1.806512
v  -1.990062 0.453366 1.806512
v  -1.566547 0.453366 1.806512
v  -1.723250 0.646526 1.806512
v  -1.778305 0.646526 1.751457
v  -1.778305 0.581114 1.806512
v  1.806511 0.325619 1.778305
v  1.806511 0.260451 1.833558
v  1.806511 0.260451 1.723051
v  1.751258 0.260451 1.778305
v  2.018269 0.453366 1.778305
v  1.861566 0.646526 1.778305
v  1.806511 0.453366 1.990063
v  1.806511 0.453366 1.566547
v  1.806511 0.646526 1.723249
v  1.594754 0.453366 1.778305
v  1.751456 0.646526 1.778305
v  1.806511 0.581114 1.778305
# 56 vertices

vn -0.000002 -1.000000 0.000001
vn 0.000003 -0.937986 -0.346674
vn 0.346674 -0.937986 -0.000000
vn -0.346678 -0.937984 0.000001
vn 0.000004 -0.937985 0.346675
vn 0.345671 0.938356 -0.000002
vn 1.000000 -0.000000 -0.000000
vn -0.000000 0.000000 -1.000000
vn 0.000001 0.938357 -0.345669
vn -1.000000 0.000000 0.000001
vn -0.345673 0.938355 -0.000002
vn 0.000001 0.000000 1.000000
vn 0.000000 0.938355 0.345673
vn -0.000001 1.000000 0.000002
vn 0.000001 -1.000000 -0.000001
vn -0.346673 -0.937986 0.000001
vn -0.000001 -0.937985 -0.346677
vn 0.000001 -0.937985 0.346676
vn 0.346673 -0.937986 0.000000
vn -0.000003 0.938355 -0.345674
vn -0.000001 -0.000000 -1.000000
vn -1.000000 0.000000 0.000002
vn -0.345668 0.938357 0.000002
vn 0.000003 0.000000 1.000000
vn -0.000004 0.938355 0.345672
vn 1.000000 -0.000000 -0.000004
vn 0.345673 0.938355 0.000004
vn 0.000003 1.000000 -0.000001
vn 0.000001 -1.000000 0.000001
vn -0.000002 -0.937985 0.346675
vn -0.346674 -0.937986 -0.000001
vn 0.346677 -0.937985 -0.000003
vn -0.000004 -0.937986 -0.346672
vn -0.345673 0.938355 0.000000
vn -1.000000 -0.000001 -0.000000
vn 0.000001 0.000001 1.000000
vn 0.000001 0.938356 0.345669
vn 1.000000 0.000001 -0.000001
vn 0.345672 0.938355 0.000001
vn 0.000001 0.938356 -0.345671
vn -0.000000 1.000000 -0.000001
vn -0.000001 -1.000000 -0.000003
vn 0.346674 -0.937986 0.000004
vn 0.000001 -0.937986 0.346673
vn -0.000001 -0.937984 -0.346679
vn -0.346675 -0.937985 0.000005
vn 0.000002 0.938356 0.345670
vn 0.000000 -0.000000 1.000000
vn 1.000000 0.000001 -0.000000
vn 0.345669 0.938357 0.000003
vn -0.000001 0.000000 -1.000000
vn 0.000002 0.938354 -0.345675
vn -0.345672 0.938355 0.000002
vn -0.000002 1.000000 -0.000003
# 54 vertex normals

vt 0.825748 0.734294 0.000000
vt 0.821558 0.747368 0.000000
vt 0.812679 0.738487 0.000000
vt 0.638617 0.112392 0.000000
vt 0.651687 0.116584 0.000000
vt 0.642811 0.125468 0.000000
vt 0.365418 0.917393 0.000000
vt 0.369609 0.904322 0.000000
vt 0.378487 0.913196 0.000000
vt 0.366383 0.088574 0.000000
vt 0.353314 0.084380 0.000000
vt 0.362189 0.075504 0.000000
vt 0.280626 0.632893 0.000000
vt 0.262824 0.597118 0.000000
vt 0.310937 0.597118 0.000000
vt 0.293139 0.632889 0.000000
vt 0.498832 0.217867 0.000000
vt 0.481030 0.253642 0.000000
vt 0.468518 0.253637 0.000000
vt 0.450721 0.217867 0.000000
vt 0.521305 0.176945 0.000000
vt 0.503513 0.212715 0.000000
vt 0.491007 0.212719 0.000000
vt 0.473199 0.176945 0.000000
vt 0.519884 0.808069 0.000000
vt 0.567991 0.808069 0.000000
vt 0.550191 0.843843 0.000000
vt 0.537685 0.843841 0.000000
vt 0.728717 0.833823 0.000000
vt 0.724495 0.820749 0.000000
vt 0.737564 0.824974 0.000000
vt 0.653602 0.113737 0.000000
vt 0.666671 0.109511 0.000000
vt 0.662449 0.122585 0.000000
vt 0.124694 0.655331 0.000000
vt 0.128918 0.668399 0.000000
vt 0.115850 0.664175 0.000000
vt 0.372147 0.067633 0.000000
vt 0.359078 0.071857 0.000000
vt 0.363304 0.058789 0.000000
vt 0.801058 0.926216 0.000000
vt 0.783285 0.890489 0.000000
vt 0.831398 0.890489 0.000000
vt 0.813616 0.926220 0.000000
vt 0.531988 0.180979 0.000000
vt 0.580101 0.180979 0.000000
vt 0.562328 0.216704 0.000000
vt 0.549770 0.216708 0.000000
vt 0.544092 0.306628 0.000000
vt 0.592199 0.306628 0.000000
vt 0.574416 0.342355 0.000000
vt 0.561863 0.342353 0.000000
vt 0.240922 0.347550 0.000000
vt 0.289028 0.347550 0.000000
vt 0.271260 0.383277 0.000000
vt 0.258707 0.383279 0.000000
vt 0.806340 0.745821 0.000000
vt 0.819408 0.750015 0.000000
vt 0.810531 0.758890 0.000000
vt 0.938904 0.387132 0.000000
vt 0.943097 0.374064 0.000000
vt 0.951973 0.382940 0.000000
vt 0.381944 0.967534 0.000000
vt 0.368876 0.963343 0.000000
vt 0.377751 0.954467 0.000000
vt 0.014797 0.423631 0.000000
vt 0.010603 0.436700 0.000000
vt 0.001729 0.427823 0.000000
vt 0.237978 0.654220 0.000000
vt 0.220173 0.618444 0.000000
vt 0.268285 0.618448 0.000000
vt 0.250482 0.654220 0.000000
vt 0.682687 0.280691 0.000000
vt 0.664895 0.316462 0.000000
vt 0.652388 0.316465 0.000000
vt 0.634582 0.280691 0.000000
vt 0.682686 0.322767 0.000000
vt 0.664887 0.358539 0.000000
vt 0.652382 0.358539 0.000000
vt 0.634582 0.322767 0.000000
vt 0.415562 0.389051 0.000000
vt 0.463672 0.389049 0.000000
vt 0.445868 0.424821 0.000000
vt 0.433362 0.424821 0.000000
vt 0.887608 0.770795 0.000000
vt 0.900676 0.766571 0.000000
vt 0.896451 0.779639 0.000000
vt 0.954088 0.248991 0.000000
vt 0.958315 0.262057 0.000000
vt 0.945245 0.257833 0.000000
vt 0.128918 0.706250 0.000000
vt 0.115850 0.710474 0.000000
vt 0.120074 0.697406 0.000000
vt 0.077422 0.357160 0.000000
vt 0.073199 0.344092 0.000000
vt 0.086266 0.348317 0.000000
vt 0.506534 0.342355 0.000000
vt 0.488760 0.306628 0.000000
vt 0.536874 0.306628 0.000000
vt 0.519086 0.342359 0.000000
vt 0.647262 0.613256 0.000000
vt 0.695369 0.613256 0.000000
vt 0.677598 0.648981 0.000000
vt 0.665045 0.648983 0.000000
vt 0.634582 0.363688 0.000000
vt 0.682687 0.363688 0.000000
vt 0.664918 0.399414 0.000000
vt 0.652368 0.399417 0.000000
vt 0.473199 0.795388 0.000000
vt 0.521310 0.795388 0.000000
vt 0.503530 0.831118 0.000000
vt 0.490979 0.831116 0.000000
vt 0.783285 0.951974 0.000000
vt 0.787478 0.938904 0.000000
vt 0.796353 0.947782 0.000000
vt 0.832665 0.022866 0.000000
vt 0.819596 0.018672 0.000000
vt 0.828472 0.009799 0.000000
vt 0.128918 0.711239 0.000000
vt 0.124727 0.724308 0.000000
vt 0.115850 0.715433 0.000000
vt 0.001729 0.023631 0.000000
vt 0.014796 0.027824 0.000000
vt 0.005920 0.036700 0.000000
vt 0.276588 0.700901 0.000000
vt 0.258789 0.665129 0.000000
vt 0.306895 0.665131 0.000000
vt 0.289094 0.700901 0.000000
vt 0.282111 0.387896 0.000000
vt 0.264313 0.423668 0.000000
vt 0.251807 0.423668 0.000000
vt 0.234006 0.387896 0.000000
vt 0.481536 0.768880 0.000000
vt 0.463733 0.804648 0.000000
vt 0.451225 0.804648 0.000000
vt 0.433430 0.768876 0.000000
vt 0.634582 0.239770 0.000000
vt 0.682687 0.239770 0.000000
vt 0.664887 0.275543 0.000000
vt 0.652384 0.275543 0.000000
vt 0.964463 0.800000 0.000000
vt 0.968687 0.813068 0.000000
vt 0.955619 0.808842 0.000000
vt 0.946210 0.123541 0.000000
vt 0.933141 0.127766 0.000000
vt 0.937366 0.114698 0.000000
vt 0.005954 0.451685 0.000000
vt 0.001729 0.438617 0.000000
vt 0.014799 0.442842 0.000000
vt 0.085879 0.188084 0.000000
vt 0.098947 0.183861 0.000000
vt 0.094723 0.196928 0.000000
vt 0.802210 0.063967 0.000000
vt 0.784437 0.028242 0.000000
vt 0.832545 0.028242 0.000000
vt 0.814763 0.063968 0.000000
vt 0.242075 0.706052 0.000000
vt 0.290181 0.706052 0.000000
vt 0.272409 0.741777 0.000000
vt 0.259858 0.741779 0.000000
vt 0.519884 0.767723 0.000000
vt 0.567993 0.767723 0.000000
vt 0.550211 0.803450 0.000000
vt 0.537657 0.803449 0.000000
vt 0.205187 0.578098 0.000000
vt 0.253293 0.578098 0.000000
vt 0.235511 0.613825 0.000000
vt 0.222960 0.613824 0.000000
vt 0.832088 0.954855 0.000000
vt 0.819020 0.950662 0.000000
vt 0.827897 0.941786 0.000000
vt 0.996929 0.123343 0.000000
vt 0.992735 0.136412 0.000000
vt 0.983861 0.127535 0.000000
vt 0.179827 0.894524 0.000000
vt 0.192896 0.898718 0.000000
vt 0.184020 0.907593 0.000000
vt 0.041498 0.984827 0.000000
vt 0.045690 0.971758 0.000000
vt 0.054564 0.980633 0.000000
vt 0.418372 0.259979 0.000000
vt 0.400576 0.224207 0.000000
vt 0.448682 0.224207 0.000000
vt 0.430879 0.259979 0.000000
vt 0.661939 0.741786 0.000000
vt 0.644145 0.777558 0.000000
vt 0.631639 0.777559 0.000000
vt 0.613832 0.741786 0.000000
vt 0.819288 0.638040 0.000000
vt 0.801482 0.673811 0.000000
vt 0.788976 0.673810 0.000000
vt 0.771181 0.638040 0.000000
vt 0.433430 0.850720 0.000000
vt 0.481534 0.850720 0.000000
vt 0.463734 0.886492 0.000000
vt 0.451229 0.886492 0.000000
vt 0.094336 0.362733 0.000000
vt 0.081268 0.366957 0.000000
vt 0.085493 0.353891 0.000000
vt 0.379439 0.909320 0.000000
vt 0.375216 0.896253 0.000000
vt 0.388283 0.900477 0.000000
vt 0.715274 0.205952 0.000000
vt 0.728342 0.201729 0.000000
vt 0.724118 0.214796 0.000000
vt 0.823253 0.717003 0.000000
vt 0.827477 0.730070 0.000000
vt 0.814409 0.725845 0.000000
vt 0.286362 0.334284 0.000000
vt 0.268588 0.298559 0.000000
vt 0.316696 0.298559 0.000000
vt 0.298915 0.334285 0.000000
vt 0.156196 0.586743 0.000000
vt 0.204302 0.586743 0.000000
vt 0.186529 0.622471 0.000000
vt 0.173978 0.622472 0.000000
vt 0.938328 0.458790 0.000000
vt 0.986435 0.458790 0.000000
vt 0.968655 0.494517 0.000000
vt 0.956102 0.494515 0.000000
vt 0.519884 0.897406 0.000000
vt 0.567991 0.897406 0.000000
vt 0.550218 0.933133 0.000000
vt 0.537667 0.933134 0.000000
# 224 texture coords

o orbs
g orbs
s 1
f -56/-224/-54 -49/-223/-53 -48/-222/-52
s 2
f -56/-221/-54 -55/-220/-51 -49/-219/-53
s 4
f -56/-218/-54 -47/-217/-50 -55/-216/-51
s 8
f -56/-215/-54 -48/-214/-52 -47/-213/-50
s 1
f -44/-212/-49 -43/-211/-48 -46/-210/-47 -45/-209/-46
s 2
f -42/-208/-45 -41/-207/-44 -45/-206/-46 -46/-205/-47
s 1
f -40/-204/-43 -39/-203/-42 -41/-202/-44 -42/-201/-45
s 2
f -40/-200/-43 -43/-199/-48 -44/-198/-49 -39/-197/-42
s 4
f -45/-196/-46 -38/-195/-41 -44/-194/-49
s 8
f -41/-193/-44 -38/-192/-41 -45/-191/-46
s 16
f -39/-190/-42 -38/-189/-41 -41/-188/-44
s 32
f -44/-187/-49 -38/-186/-41 -39/-185/-42
s 4
f -49/-184/-53 -46/-183/-47 -43/-182/-48 -48/-181/-52
s 8
f -42/-180/-45 -46/-179/-47 -49/-178/-53 -55/-177/-51
s 16
f -40/-176/-43 -42/-175/-45 -55/-174/-51 -47/-173/-50
s 32
f -43/-172/-48 -40/-171/-43 -47/-170/-50 -48/-169/-52
s 1
f -54/-168/-40 -37/-167/-39 -36/-166/-38
s 2
f -54/-165/-40 -35/-164/-37 -37/-163/-39
s 4
f -54/-162/-40 -34/-161/-36 -35/-160/-37
s 8
f -54/-159/-40 -36/-158/-38 -34/-157/-36
s 1
f -31/-156/-35 -30/-155/-34 -33/-154/-33 -32/-153/-32
s 2
f -29/-152/-31 -28/-151/-30 -32/-150/-32 -33/-149/-33
s 1
f -27/-148/-29 -26/-147/-28 -28/-146/-30 -29/-145/-31
s 2
f -27/-144/-29 -30/-143/-34 -31/-142/-35 -26/-141/-28
s 4
f -32/-140/-32 -25/-139/-27 -31/-138/-35
s 8
f -28/-137/-30 -25/-136/-27 -32/-135/-32
s 16
f -26/-134/-28 -25/-133/-27 -28/-132/-30
s 32
f -31/-131/-35 -25/-130/-27 -26/-129/-28
s 4
f -37/-128/-39 -33/-127/-33 -30/-126/-34 -36/-125/-38
s 8
f -29/-124/-31 -33/-123/-33 -37/-122/-39 -35/-121/-37
s 16
f -27/-120/-29 -29/-119/-31 -35/-118/-37 -34/-117/-36
s 32
f -30/-116/-34 -27/-115/-29 -34/-114/-36 -36/-113/-38
s 1
f -24/-112/-26 -23/-111/-25 -22/-110/-24
s 2
f -24/-109/-26 -21/-108/-23 -23/-107/-25
s 4
f -24/-106/-26 -53/-105/-22 -21/-104/-23
s 8
f -24/-103/-26 -22/-102/-24 -53/-101/-22
s 1
f -18/-100/-21 -17/-99/-20 -20/-98/-19 -19/-97/-18
s 2
f -16/-96/-17 -15/-95/-16 -19/-94/-18 -20/-93/-19
s 1
f -52/-92/-34 -14/-91/-15 -15/-90/-16 -16/-89/-17
s 2
f -52/-88/-34 -17/-87/-20 -18/-86/-21 -14/-85/-15
s 4
f -19/-84/-18 -13/-83/-14 -18/-82/-21
s 8
f -15/-81/-16 -13/-80/-14 -19/-79/-18
s 16
f -14/-78/-15 -13/-77/-14 -15/-76/-16
s 32
f -18/-75/-21 -13/-74/-14 -14/-73/-15
s 4
f -23/-72/-25 -20/-71/-19 -17/-70/-20 -22/-69/-24
s 8
f -16/-68/-17 -20/-67/-19 -23/-66/-25 -21/-65/-23
s 16
f -52/-64/-34 -16/-63/-17 -21/-62/-23 -53/-61/-22
s 32
f -17/-60/-20 -52/-59/-34 -53/-58/-22 -22/-57/-24
s 1
f -12/-56/-13 -51/-55/-12 -11/-54/-11
s 2
f -12/-53/-13 -10/-52/-10 -51/-51/-12
s 4
f -12/-50/-13 -9/-49/-9 -10/-48/-10
s 8
f -12/-47/-13 -11/-46/-11 -9/-45/-9
s 1
f -50/-44/-8 -6/-43/-7 -8/-42/-6 -7/-41/-5
s 2
f -5/-40/-4 -4/-39/-3 -7/-38/-5 -8/-37/-6
s 1
f -3/-36/-45 -2/-35/-2 -4/-34/-3 -5/-33/-4
s 2
f -3/-32/-45 -6/-31/-7 -50/-30/-8 -2/-29/-2
s 4
f -7/-28/-5 -1/-27/-1 -50/-26/-8
s 8
f -4/-25/-3 -1/-24/-1 -7/-23/-5
s 16
f -2/-22/-2 -1/-21/-1 -4/-20/-3
s 32
f -50/-19/-8 -1/-18/-1 -2/-17/-2
s 4
f -51/-16/-12 -8/-15/-6 -6/-14/-7 -11/-13/-11
s 8
f -5/-12/-4 -8/-11/-6 -51/-10/-12 -10/-9/-10
s 16
f -3/-8/-45 -5/-7/-4 -10/-6/-10 -9/-5/-9
s 32
f -6/-4/-7 -3/-3/-45 -9/-2/-9 -11/-1/-11
# 32 polygons - 32 triangles
